<?xml version="1.0" encoding="UTF-8" standalone="no"?>
<svg
   xmlns:osb="http://www.openswatchbook.org/uri/2009/osb"
   xmlns:dc="http://purl.org/dc/elements/1.1/"
   xmlns:cc="http://creativecommons.org/ns#"
   xmlns:rdf="http://www.w3.org/1999/02/22-rdf-syntax-ns#"
   xmlns:svg="http://www.w3.org/2000/svg"
   xmlns="http://www.w3.org/2000/svg"
   xmlns:xlink="http://www.w3.org/1999/xlink"
   xmlns:sodipodi="http://sodipodi.sourceforge.net/DTD/sodipodi-0.dtd"
   xmlns:inkscape="http://www.inkscape.org/namespaces/inkscape"
   inkscape:export-ydpi="256"
   inkscape:export-xdpi="256"
   inkscape:export-filename="/home/ramot/Documents/workspace/design/favicon/favicon.png"
   inkscape:version="1.0.1 (3bc2e813f5, 2020-09-07)"
   sodipodi:docname="favicon_brand_text.svg"
   id="SVGRoot"
   version="1.1"
   viewBox="0 0 1020.3593 192"
   height="192"
   width="1020.3593">
  <defs
     id="defs4908">
    <inkscape:perspective
       id="perspective34"
       inkscape:persp3d-origin="95.999999 : 64 : 1"
       inkscape:vp_z="192 : 96 : 1"
       inkscape:vp_y="0 : 1000 : 0"
       inkscape:vp_x="0 : 96 : 1"
       sodipodi:type="inkscape:persp3d" />
    <linearGradient
       osb:paint="solid"
       id="linearGradient5548">
      <stop
         id="stop5546"
         offset="0"
         style="stop-color:#ffffff;stop-opacity:1;" />
    </linearGradient>
    <clipPath
       id="clipPath13265"
       clipPathUnits="userSpaceOnUse">
      <rect
         style="fill:#5294ae;fill-opacity:1;stroke:none;stroke-width:0"
         id="rect13267"
         width="192"
         height="192"
         x="3.9999998e-07"
         y="7.3652343e-05"
         ry="23.999979" />
    </clipPath>
    <clipPath
       id="clipPath13261"
       clipPathUnits="userSpaceOnUse">
      <rect
         style="fill:#5294ae;fill-opacity:1;stroke:none;stroke-width:0"
         id="rect13263"
         width="192"
         height="192"
         x="3.9999998e-07"
         y="7.3652343e-05"
         ry="23.999979" />
    </clipPath>
    <linearGradient
       gradientUnits="userSpaceOnUse"
       y2="96"
       x2="138.27013"
       y1="96"
       x1="53.729866"
       id="linearGradient5550"
       xlink:href="#linearGradient5548"
       inkscape:collect="always" />
  </defs>
  <sodipodi:namedview
     inkscape:document-rotation="0"
     inkscape:snap-global="true"
     inkscape:snap-bbox-midpoints="true"
     inkscape:snap-bbox-edge-midpoints="true"
     inkscape:bbox-nodes="true"
     inkscape:bbox-paths="true"
     inkscape:snap-bbox="false"
     inkscape:object-paths="true"
     inkscape:snap-intersection-paths="true"
     inkscape:snap-smooth-nodes="true"
     inkscape:snap-center="true"
     inkscape:snap-others="true"
     inkscape:snap-nodes="false"
     inkscape:snap-object-midpoints="true"
     inkscape:snap-midpoints="true"
     inkscape:guide-bbox="true"
     showguides="true"
     inkscape:grid-bbox="true"
     inkscape:window-maximized="1"
     inkscape:window-y="0"
     inkscape:window-x="0"
     inkscape:window-height="1009"
     inkscape:window-width="1920"
     showgrid="false"
     inkscape:current-layer="text850"
     inkscape:document-units="px"
     inkscape:cy="54.539134"
     inkscape:cx="468.41646"
     inkscape:zoom="1.0615945"
     inkscape:pageshadow="2"
     inkscape:pageopacity="0.0"
     borderopacity="1.0"
     bordercolor="#666666"
     pagecolor="#ffffff"
     id="base"
     fit-margin-top="0"
     fit-margin-left="0"
     fit-margin-right="0"
     fit-margin-bottom="0">
    <inkscape:grid
       id="grid4935"
       type="xygrid"
       originx="0"
       originy="0" />
    <sodipodi:guide
       inkscape:locked="false"
       id="guide4979"
       orientation="0,1"
       position="95.999999,95.999999" />
    <sodipodi:guide
       inkscape:locked="false"
       id="guide4981"
       orientation="1,0"
       position="95.999999,95.999999" />
  </sodipodi:namedview>
  <metadata
     id="metadata4911">
    <rdf:RDF>
      <cc:Work
         rdf:about="">
        <dc:format>image/svg+xml</dc:format>
        <dc:type
           rdf:resource="http://purl.org/dc/dcmitype/StillImage" />
        <dc:title></dc:title>
      </cc:Work>
    </rdf:RDF>
  </metadata>
  <g
     style="display:inline"
     id="layer1"
     inkscape:groupmode="layer"
     inkscape:label="Layer 1">
    <circle
       r="96"
       cy="96"
       cx="96"
       id="path4953"
       style="fill:#24292e;fill-opacity:1;stroke-width:1.02571"
       inkscape:export-xdpi="64"
       inkscape:export-ydpi="64" />
    <rect
       ry="0"
       y="46"
       x="46"
       height="100"
       width="100"
       id="rect166"
       style="fill:#ffffff;fill-opacity:1;stroke-width:1.3429"
       inkscape:export-xdpi="64"
       inkscape:export-ydpi="64" />
    <rect
       style="display:inline;fill:#24292e;fill-opacity:1;stroke-width:0.805741"
       id="rect975"
       width="60"
       height="60"
       x="66"
       y="66"
       ry="0"
       inkscape:export-xdpi="64"
       inkscape:export-ydpi="64" />
    <g
       aria-label="ramottamado"
       id="text850"
       style="font-size:136.24px;line-height:1;font-family:Overpass;-inkscape-font-specification:Overpass;stroke-width:1.41916">
      <path
         id="path874"
         style="font-size:136.24px;fill:#24292e;fill-opacity:1;stroke-width:1.41916"
         sodipodi:type="inkscape:offset"
         inkscape:radius="0"
         inkscape:original="M 545.15625 46 L 533.30273 51.722656 L 533.30273 74.746094 L 521.99414 74.746094 L 521.99414 85.101562 L 533.30273 85.101562 L 533.30273 129.37891 C 533.30273 139.18819 537.52515 146 548.01562 146 C 553.46523 146 557.68871 144.77455 561.36719 142.86719 L 562.73047 131.28711 C 559.73319 133.19447 556.32791 134.96484 552.37695 134.96484 C 546.24615 134.96484 545.15625 130.74109 545.15625 125.42773 L 545.15625 85.101562 L 562.32227 85.101562 L 562.32227 74.746094 L 545.15625 74.746094 L 545.15625 46 z M 594.06445 46 L 582.21289 51.722656 L 582.21289 74.746094 L 570.9043 74.746094 L 570.9043 85.101562 L 582.21289 85.101562 L 582.21289 129.37891 C 582.21289 139.18819 586.4353 146 596.92578 146 C 602.37538 146 606.59886 144.77455 610.27734 142.86719 L 611.64062 131.28711 C 608.64334 133.19447 605.23612 134.96484 601.28516 134.96484 C 595.15436 134.96484 594.06445 130.74109 594.06445 125.42773 L 594.06445 85.101562 L 611.23047 85.101562 L 611.23047 74.746094 L 594.06445 74.746094 L 594.06445 46 z M 940.38672 46 L 928.5332 51.585938 L 928.5332 79.650391 C 924.58224 76.108151 919.13338 73.111328 910.95898 73.111328 C 893.6565 73.111328 882.21289 86.599963 882.21289 109.48828 C 882.21289 131.96788 893.24778 146 910.95898 146 C 919.26962 146 924.58224 143.00322 928.5332 138.91602 L 928.5332 144.36523 L 940.38672 144.36523 L 940.38672 46 z M 244.33789 73.111328 C 236.57221 73.111328 230.98704 76.92676 227.85352 83.875 L 227.85352 74.746094 L 216 74.746094 L 216 144.36523 L 227.85352 144.36523 L 227.85352 105.12891 C 227.85352 89.325068 236.70901 84.828125 243.38477 84.828125 C 248.15317 84.828125 251.15024 86.327532 253.33008 87.826172 L 255.10156 76.654297 C 252.64924 74.610697 248.83381 73.111328 244.33789 73.111328 z M 292.56641 73.111328 C 282.07593 73.111328 272.94912 76.79027 267.36328 80.46875 L 270.76758 90.414062 C 275.9447 86.735583 283.30268 83.466797 291.06836 83.466797 C 300.0602 83.466797 306.19141 86.871212 306.19141 99.132812 L 306.19141 104.03906 C 300.46933 100.7693 294.33783 99.542969 288.20703 99.542969 C 274.71927 99.542969 262.18555 106.49009 262.18555 122.56641 C 262.18555 138.09777 272.26659 146 286.43555 146 C 294.74619 146 301.55925 142.32257 306.19141 137.96289 L 306.19141 144.36523 L 317.36328 144.36523 L 317.36328 98.179688 C 317.36328 76.790007 303.46561 73.111328 292.56641 73.111328 z M 368.04297 73.111328 C 360.68601 73.111328 354.01055 75.699316 349.78711 81.285156 L 349.78711 74.746094 L 337.93555 74.746094 L 337.93555 144.36523 L 349.78711 144.36523 L 349.78711 101.99414 C 349.78711 90.958703 355.50912 84.011719 364.77344 84.011719 C 375.5364 84.011719 378.66992 92.594061 378.66992 102.13086 L 378.66992 144.36523 L 390.52344 144.36523 L 390.52344 102.53906 C 390.52344 91.503625 396.51793 84.011719 405.50977 84.011719 C 416.27273 84.011719 419.54297 92.594061 419.54297 102.13086 L 419.54297 144.36523 L 431.39453 144.36523 L 431.39453 98.724609 C 431.39453 81.830848 420.76757 73.111328 406.87109 73.111328 C 397.87925 73.111328 390.79618 77.063038 386.70898 83.330078 C 382.75802 76.518078 375.53617 73.111328 368.04297 73.111328 z M 479.89648 73.111328 C 461.2316 73.111328 449.10547 86.734729 449.10547 109.62305 C 449.10547 132.64761 461.2316 146 479.89648 146 C 498.56136 146 510.6875 132.3766 510.6875 109.48828 C 510.6875 86.463723 498.56136 73.111328 479.89648 73.111328 z M 654.00977 73.111328 C 643.51929 73.111328 634.39248 76.79027 628.80664 80.46875 L 632.21289 90.414062 C 637.39002 86.735583 644.74604 83.466797 652.51172 83.466797 C 661.50356 83.466797 667.63477 86.871212 667.63477 99.132812 L 667.63477 104.03906 C 661.91269 100.7693 655.78119 99.542969 649.65039 99.542969 C 636.16262 99.542969 623.62891 106.49009 623.62891 122.56641 C 623.62891 138.09777 633.70994 146 647.87891 146 C 656.18955 146 663.00261 142.32257 667.63477 137.96289 L 667.63477 144.36523 L 678.80664 144.36523 L 678.80664 98.179688 C 678.80664 76.790007 664.90897 73.111328 654.00977 73.111328 z M 729.48828 73.111328 C 722.13131 73.111328 715.45391 75.699316 711.23047 81.285156 L 711.23047 74.746094 L 699.37891 74.746094 L 699.37891 144.36523 L 711.23047 144.36523 L 711.23047 101.99414 C 711.23047 90.958703 716.95247 84.011719 726.2168 84.011719 C 736.97976 84.011719 740.11328 92.594061 740.11328 102.13086 L 740.11328 144.36523 L 751.9668 144.36523 L 751.9668 102.53906 C 751.9668 91.503625 757.96128 84.011719 766.95312 84.011719 C 777.71609 84.011719 780.98633 92.594061 780.98633 102.13086 L 780.98633 144.36523 L 792.83984 144.36523 L 792.83984 98.724609 C 792.83984 81.830848 782.21289 73.111328 768.31641 73.111328 C 759.32457 73.111328 752.23954 77.063038 748.15234 83.330078 C 744.20138 76.518078 736.98148 73.111328 729.48828 73.111328 z M 840.93164 73.111328 C 830.44115 73.111328 821.3124 76.79027 815.72656 80.46875 L 819.13281 90.414062 C 824.30993 86.735583 831.6679 83.466797 839.43359 83.466797 C 848.42543 83.466797 854.55469 86.871212 854.55469 99.132812 L 854.55469 104.03906 C 848.83261 100.7693 842.70308 99.542969 836.57227 99.542969 C 823.08451 99.542969 810.55078 106.49009 810.55078 122.56641 C 810.55078 138.09777 820.63182 146 834.80078 146 C 843.11143 146 849.92253 142.32257 854.55469 137.96289 L 854.55469 144.36523 L 865.72656 144.36523 L 865.72656 98.179688 C 865.72656 76.790007 851.83084 73.111328 840.93164 73.111328 z M 989.56836 73.111328 C 970.90348 73.111328 958.7793 86.734729 958.7793 109.62305 C 958.7793 132.64761 970.90348 146 989.56836 146 C 1008.2332 146 1020.3594 132.3766 1020.3594 109.48828 C 1020.3594 86.463723 1008.2332 73.111328 989.56836 73.111328 z M 479.89648 84.011719 C 491.74936 84.011719 498.69727 93.684443 498.69727 109.48828 C 498.69727 125.42836 491.61312 134.96484 479.89648 134.96484 C 468.0436 134.96484 461.0957 125.42689 461.0957 109.62305 C 461.0957 93.410489 468.0436 84.011719 479.89648 84.011719 z M 912.59375 84.011719 C 920.63191 84.011719 925.94464 88.779987 928.5332 92.867188 L 928.5332 125.56445 C 924.99096 131.55901 919.13327 134.96484 912.59375 134.96484 C 901.14959 134.96484 894.20117 123.92972 894.20117 109.48828 C 894.20117 93.139483 900.87711 84.011719 912.59375 84.011719 z M 989.56836 84.011719 C 1001.4212 84.011719 1008.3691 93.684443 1008.3691 109.48828 C 1008.3691 125.42836 1001.2849 134.96484 989.56836 134.96484 C 977.71548 134.96484 970.76758 125.42689 970.76758 109.62305 C 970.76758 93.410489 977.71548 84.011719 989.56836 84.011719 z M 289.8418 109.75977 C 295.56388 109.75977 301.96797 111.80402 306.19141 114.39258 L 306.19141 126.38086 C 302.24045 131.01302 295.97271 135.50977 288.20703 135.50977 C 278.67023 135.50977 273.35742 130.33209 273.35742 122.56641 C 273.35742 113.71081 280.84996 109.75977 289.8418 109.75977 z M 651.28516 109.75977 C 657.00724 109.75977 663.41133 111.80402 667.63477 114.39258 L 667.63477 126.38086 C 663.68381 131.01302 657.41607 135.50977 649.65039 135.50977 C 640.11359 135.50977 634.80078 130.33209 634.80078 122.56641 C 634.80078 113.71081 642.29332 109.75977 651.28516 109.75977 z M 838.20703 109.75977 C 843.92911 109.75977 850.33125 111.80402 854.55469 114.39258 L 854.55469 126.38086 C 850.60373 131.01302 844.33796 135.50977 836.57227 135.50977 C 827.03547 135.50977 821.7207 130.33209 821.7207 122.56641 C 821.7207 113.71081 829.21518 109.75977 838.20703 109.75977 z "
         d="m 545.15625,46 -11.85352,5.722656 v 23.023438 h -11.30859 v 10.355468 h 11.30859 v 44.277348 c 0,9.80928 4.22242,16.62109 14.71289,16.62109 5.44961,0 9.67309,-1.22545 13.35157,-3.13281 l 1.36328,-11.58008 c -2.99728,1.90736 -6.40256,3.67773 -10.35352,3.67773 -6.1308,0 -7.2207,-4.22375 -7.2207,-9.53711 V 85.101562 h 17.16602 V 74.746094 h -17.16602 z m 48.9082,0 -11.85156,5.722656 V 74.746094 H 570.9043 v 10.355468 h 11.30859 v 44.277348 c 0,9.80928 4.22241,16.62109 14.71289,16.62109 5.4496,0 9.67308,-1.22545 13.35156,-3.13281 l 1.36328,-11.58008 c -2.99728,1.90736 -6.4045,3.67773 -10.35546,3.67773 -6.1308,0 -7.22071,-4.22375 -7.22071,-9.53711 V 85.101562 h 17.16602 V 74.746094 h -17.16602 z m 346.32227,0 -11.85352,5.585938 v 28.064453 c -3.95096,-3.54224 -9.39982,-6.539063 -17.57422,-6.539063 -17.30248,0 -28.74609,13.488635 -28.74609,36.376952 0,22.4796 11.03489,36.51172 28.74609,36.51172 8.31064,0 13.62326,-2.99678 17.57422,-7.08398 v 5.44921 h 11.85352 z M 244.33789,73.111328 c -7.76568,0 -13.35085,3.815432 -16.48437,10.763672 V 74.746094 H 216 v 69.619136 h 11.85352 v -39.23632 c 0,-15.803842 8.85549,-20.300785 15.53125,-20.300785 4.7684,0 7.76547,1.499407 9.94531,2.998047 l 1.77148,-11.171875 c -2.45232,-2.0436 -6.26775,-3.542969 -10.76367,-3.542969 z m 48.22852,0 c -10.49048,0 -19.61729,3.678942 -25.20313,7.357422 l 3.4043,9.945312 c 5.17712,-3.678479 12.5351,-6.947265 20.30078,-6.947265 8.99184,0 15.12305,3.404415 15.12305,15.666015 v 4.906248 c -5.72208,-3.26976 -11.85358,-4.496091 -17.98438,-4.496091 -13.48776,0 -26.02148,6.947121 -26.02148,23.023441 0,15.53136 10.08104,23.43359 24.25,23.43359 8.31064,0 15.1237,-3.67743 19.75586,-8.03711 v 6.40234 h 11.17187 V 98.179688 c 0,-21.389681 -13.89767,-25.06836 -24.79687,-25.06836 z m 75.47656,0 c -7.35696,0 -14.03242,2.587988 -18.25586,8.173828 v -6.539062 h -11.85156 v 69.619136 h 11.85156 v -42.37109 c 0,-11.035437 5.72201,-17.982421 14.98633,-17.982421 10.76296,0 13.89648,8.582342 13.89648,18.119141 v 42.23437 h 11.85352 v -41.82617 c 0,-11.035435 5.99449,-18.527341 14.98633,-18.527341 10.76296,0 14.0332,8.582342 14.0332,18.119141 v 42.23437 h 11.85156 V 98.724609 c 0,-16.893761 -10.62696,-25.613281 -24.52344,-25.613281 -8.99184,0 -16.07491,3.95171 -20.16211,10.21875 -3.95096,-6.812 -11.17281,-10.21875 -18.66601,-10.21875 z m 111.85351,0 c -18.66488,0 -30.79101,13.623401 -30.79101,36.511722 0,23.02456 12.12613,36.37695 30.79101,36.37695 18.66488,0 30.79102,-13.6234 30.79102,-36.51172 0,-23.024557 -12.12614,-36.376952 -30.79102,-36.376952 z m 174.11329,0 c -10.49048,0 -19.61729,3.678942 -25.20313,7.357422 l 3.40625,9.945312 c 5.17713,-3.678479 12.53315,-6.947265 20.29883,-6.947265 8.99184,0 15.12305,3.404415 15.12305,15.666015 v 4.906248 c -5.72208,-3.26976 -11.85358,-4.496091 -17.98438,-4.496091 -13.48777,0 -26.02148,6.947121 -26.02148,23.023441 0,15.53136 10.08103,23.43359 24.25,23.43359 8.31064,0 15.1237,-3.67743 19.75586,-8.03711 v 6.40234 h 11.17187 V 98.179688 c 0,-21.389681 -13.89767,-25.06836 -24.79687,-25.06836 z m 75.47851,0 c -7.35697,0 -14.03437,2.587988 -18.25781,8.173828 v -6.539062 h -11.85156 v 69.619136 h 11.85156 v -42.37109 c 0,-11.035437 5.722,-17.982421 14.98633,-17.982421 10.76296,0 13.89648,8.582342 13.89648,18.119141 v 42.23437 h 11.85352 v -41.82617 c 0,-11.035435 5.99448,-18.527341 14.98632,-18.527341 10.76297,0 14.03321,8.582342 14.03321,18.119141 v 42.23437 h 11.85351 V 98.724609 c 0,-16.893761 -10.62695,-25.613281 -24.52343,-25.613281 -8.99184,0 -16.07687,3.95171 -20.16407,10.21875 -3.95096,-6.812 -11.17086,-10.21875 -18.66406,-10.21875 z m 111.44336,0 c -10.49049,0 -19.61924,3.678942 -25.20508,7.357422 l 3.40625,9.945312 c 5.17712,-3.678479 12.53509,-6.947265 20.30078,-6.947265 8.99184,0 15.1211,3.404415 15.1211,15.666015 v 4.906248 c -5.72208,-3.26976 -11.85161,-4.496091 -17.98242,-4.496091 -13.48776,0 -26.02149,6.947121 -26.02149,23.023441 0,15.53136 10.08104,23.43359 24.25,23.43359 8.31065,0 15.12175,-3.67743 19.75391,-8.03711 v 6.40234 h 11.17187 V 98.179688 c 0,-21.389681 -13.89572,-25.06836 -24.79492,-25.06836 z m 148.63672,0 c -18.66488,0 -30.78906,13.623401 -30.78906,36.511722 0,23.02456 12.12418,36.37695 30.78906,36.37695 18.66484,0 30.79104,-13.6234 30.79104,-36.51172 0,-23.024557 -12.1262,-36.376952 -30.79104,-36.376952 z M 479.89648,84.011719 c 11.85288,0 18.80079,9.672724 18.80079,25.476561 0,15.94008 -7.08415,25.47656 -18.80079,25.47656 -11.85288,0 -18.80078,-9.53795 -18.80078,-25.34179 0,-16.212561 6.9479,-25.611331 18.80078,-25.611331 z m 432.69727,0 c 8.03816,0 13.35089,4.768268 15.93945,8.855469 v 32.697262 c -3.54224,5.99456 -9.39993,9.40039 -15.93945,9.40039 -11.44416,0 -18.39258,-11.03512 -18.39258,-25.47656 0,-16.348797 6.67594,-25.476561 18.39258,-25.476561 z m 76.97461,0 c 11.85284,0 18.80074,9.672724 18.80074,25.476561 0,15.94008 -7.0842,25.47656 -18.80074,25.47656 -11.85288,0 -18.80078,-9.53795 -18.80078,-25.34179 0,-16.212561 6.9479,-25.611331 18.80078,-25.611331 z M 289.8418,109.75977 c 5.72208,0 12.12617,2.04425 16.34961,4.63281 v 11.98828 c -3.95096,4.63216 -10.2187,9.12891 -17.98438,9.12891 -9.5368,0 -14.84961,-5.17768 -14.84961,-12.94336 0,-8.8556 7.49254,-12.80664 16.48438,-12.80664 z m 361.44336,0 c 5.72208,0 12.12617,2.04425 16.34961,4.63281 v 11.98828 c -3.95096,4.63216 -10.2187,9.12891 -17.98438,9.12891 -9.5368,0 -14.84961,-5.17768 -14.84961,-12.94336 0,-8.8556 7.49254,-12.80664 16.48438,-12.80664 z m 186.92187,0 c 5.72208,0 12.12422,2.04425 16.34766,4.63281 v 11.98828 c -3.95096,4.63216 -10.21673,9.12891 -17.98242,9.12891 -9.5368,0 -14.85157,-5.17768 -14.85157,-12.94336 0,-8.8556 7.49448,-12.80664 16.48633,-12.80664 z" />
    </g>
  </g>
</svg>
